ffmpeg started on 2025-06-07 at 17:46:51
Report written to "D:\Convert\FFMetrics\reports\psnr_report-6.txt"
Log level: 32
Command line:
ffmpeg -hide_banner -nostdin -i "G:\\\xc0\xed\xe8\xec\xe5\\\xce\xed\xe3\xee\xe8\xed\xe3\xe8\\!_36_\xce\xf1\xe5\xed\xfc_2024\\DreamCast\\\xdd\xe9, \xd2\xee\xec\xe1\xee!\\\xd2\xc2-2\\[DC] Tonbo 2 - 07_Telegram_HEVC.mkv" -i "G:\\\xc0\xed\xe8\xec\xe5\\\xce\xed\xe3\xee\xe8\xed\xe3\xe8\\!_36_\xce\xf1\xe5\xed\xfc_2024\\DreamCast\\\xdd\xe9, \xd2\xee\xec\xe1\xee!\\\xd2\xc2-2\\[DC] Tonbo 2 - 07_Telegram.mp4" -lavfi "[0:v]settb=AVTB,setpts=PTS-STARTPTS,format=pix_fmts=yuv420p10,fps=24000/1001,scale=1920:1080:flags=bicubic[main];[1:v]settb=AVTB,setpts=PTS-STARTPTS,format=pix_fmts=yuv420p,fps=24000/1001,scale=1920:1080:flags=bicubic[ref];[main][ref]psnr=eof_action=endall:stats_file='D\\:/Convert/FFMetrics/logs/psnr_logfile-6.txt'" -f null -
Input #0, matroska,webm, from 'G:\Аниме\Онгоинги\!_36_Осень_2024\DreamCast\Эй, Томбо!\ТВ-2\[DC] Tonbo 2 - 07_Telegram_HEVC.mkv':
  Metadata:
    COMPATIBLE_BRANDS: isomiso2avc1mp41
    MAJOR_BRAND     : isom
    MINOR_VERSION   : 512
    ENCODER         : Lavf61.7.100
  Duration: 00:24:20.78, start: -0.021000, bitrate: 1636 kb/s
  Stream #0:0: Video: hevc (Main 10), yuv420p10le(tv, bt709, progressive), 1920x1080 [SAR 1:1 DAR 16:9], 23.98 fps, 23.98 tbr, 1k tbn (default)
      Metadata:
        HANDLER_NAME    : VideoHandler
        VENDOR_ID       : [0][0][0][0]
        ENCODER         : Lavc61.19.100 libx265
        BPS             : 1440201
        DURATION        : 00:24:19.666708333
        NUMBER_OF_FRAMES: 34997
        NUMBER_OF_BYTES : 262776592
        _STATISTICS_WRITING_APP: mkvpropedit v66.0.0 ('Josie') 64-bit
        _STATISTICS_WRITING_DATE_UTC: 2025-06-06 07:58:35
        _STATISTICS_TAGS: BPS DURATION NUMBER_OF_FRAMES NUMBER_OF_BYTES
  Stream #0:1: Audio: aac (LC), 48000 Hz, stereo, fltp (default)
      Metadata:
        HANDLER_NAME    : SoundHandler
        VENDOR_ID       : [0][0][0][0]
        ENCODER         : Lavc61.19.100 aac
        BPS             : 192897
        DURATION        : 00:24:20.778000000
        NUMBER_OF_FRAMES: 68475
        NUMBER_OF_BYTES : 35222514
        _STATISTICS_WRITING_APP: mkvpropedit v66.0.0 ('Josie') 64-bit
        _STATISTICS_WRITING_DATE_UTC: 2025-06-06 07:58:35
        _STATISTICS_TAGS: BPS DURATION NUMBER_OF_FRAMES NUMBER_OF_BYTES
Input #1, mov,mp4,m4a,3gp,3g2,mj2, from 'G:\Аниме\Онгоинги\!_36_Осень_2024\DreamCast\Эй, Томбо!\ТВ-2\[DC] Tonbo 2 - 07_Telegram.mp4':
  Metadata:
    major_brand     : isom
    minor_version   : 512
    compatible_brands: isomiso2avc1mp41
    encoder         : Lavf61.1.100
  Duration: 00:24:20.73, start: 0.000000, bitrate: 3719 kb/s
  Stream #1:0[0x1](und): Video: h264 (High) (avc1 / 0x31637661), yuv420p(tv, bt709, progressive), 1920x1080 [SAR 1:1 DAR 16:9], 3573 kb/s, 23.98 fps, 23.98 tbr, 24k tbn (default)
      Metadata:
        handler_name    : VideoHandler
        vendor_id       : [0][0][0][0]
        encoder         : Lavc61.3.100 h264_qsv
  Stream #1:1[0x2](und): Audio: aac (HE-AACv2) (mp4a / 0x6134706D), 48000 Hz, stereo, fltp, 144 kb/s (default)
      Metadata:
        handler_name    : SoundHandler
        vendor_id       : [0][0][0][0]
Stream mapping:
  Stream #0:0 (hevc) -> settb:default
  Stream #1:0 (h264) -> settb:default
  psnr:default -> Stream #0:0 (wrapped_avframe)
  Stream #0:1 -> #0:1 (aac (native) -> pcm_s16le (native))
Output #0, null, to 'pipe:':
  Metadata:
    COMPATIBLE_BRANDS: isomiso2avc1mp41
    MAJOR_BRAND     : isom
    MINOR_VERSION   : 512
    encoder         : Lavf61.7.100
  Stream #0:0: Video: wrapped_avframe, yuv420p10le(tv, bt709, progressive), 1920x1080 [SAR 1:1 DAR 16:9], q=2-31, 200 kb/s, 23.98 fps, 23.98 tbn
      Metadata:
        encoder         : Lavc61.19.100 wrapped_avframe
  Stream #0:1: Audio: pcm_s16le, 48000 Hz, stereo, s16, 1536 kb/s (default)
      Metadata:
        HANDLER_NAME    : SoundHandler
        VENDOR_ID       : [0][0][0][0]
        _STATISTICS_TAGS: BPS DURATION NUMBER_OF_FRAMES NUMBER_OF_BYTES
        BPS             : 192897
        DURATION        : 00:24:20.778000000
        NUMBER_OF_FRAMES: 68475
        NUMBER_OF_BYTES : 35222514
        _STATISTICS_WRITING_APP: mkvpropedit v66.0.0 ('Josie') 64-bit
        _STATISTICS_WRITING_DATE_UTC: 2025-06-06 07:58:35
        encoder         : Lavc61.19.100 pcm_s16le
frame=  166 fps=0.0 q=-0.0 size=N/A time=00:00:06.92 bitrate=N/A speed=13.4x    frame=  347 fps=338 q=-0.0 size=N/A time=00:00:14.47 bitrate=N/A speed=14.1x    frame=  551 fps=356 q=-0.0 size=N/A time=00:00:22.98 bitrate=N/A speed=14.8x    frame=  800 fps=389 q=-0.0 size=N/A time=00:00:33.36 bitrate=N/A speed=16.2x    frame= 1030 fps=400 q=-0.0 size=N/A time=00:00:42.95 bitrate=N/A speed=16.7x    frame= 1271 fps=412 q=-0.0 size=N/A time=00:00:53.01 bitrate=N/A speed=17.2x    frame= 1475 fps=409 q=-0.0 size=N/A time=00:01:01.51 bitrate=N/A speed=  17x    frame= 1733 fps=421 q=-0.0 size=N/A time=00:01:12.28 bitrate=N/A speed=17.5x    frame= 1947 fps=421 q=-0.0 size=N/A time=00:01:21.20 bitrate=N/A speed=17.5x    frame= 2191 fps=425 q=-0.0 size=N/A time=00:01:31.38 bitrate=N/A speed=17.7x    frame= 2411 fps=425 q=-0.0 size=N/A time=00:01:40.55 bitrate=N/A speed=17.7x    frame= 2625 fps=425 q=-0.0 size=N/A time=00:01:49.48 bitrate=N/A speed=17.7x    frame= 2860 fps=427 q=-0.0 size=N/A time=00:01:59.28 bitrate=N/A speed=17.8x    frame= 3069 fps=425 q=-0.0 size=N/A time=00:02:08.00 bitrate=N/A speed=17.7x    frame= 3310 fps=429 q=-0.0 size=N/A time=00:02:18.05 bitrate=N/A speed=17.9x    frame= 3481 fps=422 q=-0.0 size=N/A time=00:02:25.18 bitrate=N/A speed=17.6x    frame= 3714 fps=424 q=-0.0 size=N/A time=00:02:34.90 bitrate=N/A speed=17.7x    frame= 3926 fps=423 q=-0.0 size=N/A time=00:02:43.74 bitrate=N/A speed=17.7x    frame= 4106 fps=419 q=-0.0 size=N/A time=00:02:51.25 bitrate=N/A speed=17.5x    frame= 4350 fps=422 q=-0.0 size=N/A time=00:03:01.43 bitrate=N/A speed=17.6x    frame= 4514 fps=417 q=-0.0 size=N/A time=00:03:08.27 bitrate=N/A speed=17.4x    frame= 4710 fps=415 q=-0.0 size=N/A time=00:03:16.44 bitrate=N/A speed=17.3x    frame= 4895 fps=413 q=-0.0 size=N/A time=00:03:24.16 bitrate=N/A speed=17.2x    frame= 5109 fps=413 q=-0.0 size=N/A time=00:03:33.08 bitrate=N/A speed=17.2x    frame= 5346 fps=415 q=-0.0 size=N/A time=00:03:42.97 bitrate=N/A speed=17.3x    frame= 5571 fps=416 q=-0.0 size=N/A time=00:03:52.35 bitrate=N/A speed=17.3x    frame= 5771 fps=415 q=-0.0 size=N/A time=00:04:00.69 bitrate=N/A speed=17.3x    frame= 5906 fps=409 q=-0.0 size=N/A time=00:04:06.32 bitrate=N/A speed=17.1x    frame= 6058 fps=405 q=-0.0 size=N/A time=00:04:12.66 bitrate=N/A speed=16.9x    frame= 6261 fps=405 q=-0.0 size=N/A time=00:04:21.13 bitrate=N/A speed=16.9x    frame= 6420 fps=402 q=-0.0 size=N/A time=00:04:27.76 bitrate=N/A speed=16.8x    frame= 6610 fps=401 q=-0.0 size=N/A time=00:04:35.69 bitrate=N/A speed=16.7x    frame= 6825 fps=401 q=-0.0 size=N/A time=00:04:44.65 bitrate=N/A speed=16.7x    frame= 7096 fps=405 q=-0.0 size=N/A time=00:04:55.96 bitrate=N/A speed=16.9x    frame= 7333 fps=406 q=-0.0 size=N/A time=00:05:05.84 bitrate=N/A speed=16.9x    frame= 7575 fps=408 q=-0.0 size=N/A time=00:05:15.94 bitrate=N/A speed=  17x    frame= 7788 fps=408 q=-0.0 size=N/A time=00:05:24.82 bitrate=N/A speed=  17x    frame= 8033 fps=410 q=-0.0 size=N/A time=00:05:35.04 bitrate=N/A speed=17.1x    frame= 8227 fps=409 q=-0.0 size=N/A time=00:05:43.13 bitrate=N/A speed=17.1x    frame= 8492 fps=412 q=-0.0 size=N/A time=00:05:54.18 bitrate=N/A speed=17.2x    frame= 8697 fps=411 q=-0.0 size=N/A time=00:06:02.73 bitrate=N/A speed=17.2x    frame= 8858 fps=409 q=-0.0 size=N/A time=00:06:09.45 bitrate=N/A speed=17.1x    frame= 9097 fps=410 q=-0.0 size=N/A time=00:06:19.42 bitrate=N/A speed=17.1x    frame= 9316 fps=411 q=-0.0 size=N/A time=00:06:28.55 bitrate=N/A speed=17.1x    frame= 9543 fps=411 q=-0.0 size=N/A time=00:06:38.02 bitrate=N/A speed=17.2x    frame= 9774 fps=412 q=-0.0 size=N/A time=00:06:47.65 bitrate=N/A speed=17.2x    frame=10014 fps=413 q=-0.0 size=N/A time=00:06:57.66 bitrate=N/A speed=17.2x    frame=10248 fps=414 q=-0.0 size=N/A time=00:07:07.42 bitrate=N/A speed=17.3x    frame=10450 fps=414 q=-0.0 size=N/A time=00:07:15.85 bitrate=N/A speed=17.3x    frame=10704 fps=415 q=-0.0 size=N/A time=00:07:26.44 bitrate=N/A speed=17.3x    frame=10939 fps=416 q=-0.0 size=N/A time=00:07:36.24 bitrate=N/A speed=17.4x    frame=11196 fps=418 q=-0.0 size=N/A time=00:07:46.96 bitrate=N/A speed=17.4x    frame=11469 fps=420 q=-0.0 size=N/A time=00:07:58.35 bitrate=N/A speed=17.5x    frame=11651 fps=419 q=-0.0 size=N/A time=00:08:05.94 bitrate=N/A speed=17.5x    frame=11881 fps=419 q=-0.0 size=N/A time=00:08:15.53 bitrate=N/A speed=17.5x    frame=12042 fps=417 q=-0.0 size=N/A time=00:08:22.25 bitrate=N/A speed=17.4x    frame=12221 fps=416 q=-0.0 size=N/A time=00:08:29.71 bitrate=N/A speed=17.3x    frame=12450 fps=416 q=-0.0 size=N/A time=00:08:39.26 bitrate=N/A speed=17.4x    frame=12702 fps=418 q=-0.0 size=N/A time=00:08:49.77 bitrate=N/A speed=17.4x    frame=12906 fps=417 q=-0.0 size=N/A time=00:08:58.28 bitrate=N/A speed=17.4x    frame=13147 fps=418 q=-0.0 size=N/A time=00:09:08.33 bitrate=N/A speed=17.4x    frame=13393 fps=419 q=-0.0 size=N/A time=00:09:18.59 bitrate=N/A speed=17.5x    frame=13595 fps=419 q=-0.0 size=N/A time=00:09:27.02 bitrate=N/A speed=17.5x    frame=13823 fps=419 q=-0.0 size=N/A time=00:09:36.53 bitrate=N/A speed=17.5x    frame=14066 fps=420 q=-0.0 size=N/A time=00:09:46.66 bitrate=N/A speed=17.5x    frame=14274 fps=419 q=-0.0 size=N/A time=00:09:55.34 bitrate=N/A speed=17.5x    frame=14530 fps=421 q=-0.0 size=N/A time=00:10:06.02 bitrate=N/A speed=17.5x    frame=14748 fps=421 q=-0.0 size=N/A time=00:10:15.11 bitrate=N/A speed=17.5x    frame=14911 fps=419 q=-0.0 size=N/A time=00:10:21.91 bitrate=N/A speed=17.5x    frame=15131 fps=419 q=-0.0 size=N/A time=00:10:31.08 bitrate=N/A speed=17.5x    frame=15334 fps=419 q=-0.0 size=N/A time=00:10:39.55 bitrate=N/A speed=17.5x    frame=15487 fps=417 q=-0.0 size=N/A time=00:10:45.93 bitrate=N/A speed=17.4x    frame=15707 fps=417 q=-0.0 size=N/A time=00:10:55.11 bitrate=N/A speed=17.4x    frame=15960 fps=418 q=-0.0 size=N/A time=00:11:05.66 bitrate=N/A speed=17.4x    frame=16191 fps=419 q=-0.0 size=N/A time=00:11:15.29 bitrate=N/A speed=17.5x    frame=16379 fps=418 q=-0.0 size=N/A time=00:11:23.14 bitrate=N/A speed=17.4x    frame=16618 fps=419 q=-0.0 size=N/A time=00:11:33.10 bitrate=N/A speed=17.5x    frame=16886 fps=420 q=-0.0 size=N/A time=00:11:44.28 bitrate=N/A speed=17.5x    frame=17043 fps=418 q=-0.0 size=N/A time=00:11:50.83 bitrate=N/A speed=17.5x    frame=17253 fps=418 q=-0.0 size=N/A time=00:11:59.59 bitrate=N/A speed=17.4x    frame=17489 fps=419 q=-0.0 size=N/A time=00:12:09.43 bitrate=N/A speed=17.5x    frame=17754 fps=420 q=-0.0 size=N/A time=00:12:20.48 bitrate=N/A speed=17.5x    frame=17955 fps=420 q=-0.0 size=N/A time=00:12:28.87 bitrate=N/A speed=17.5x    frame=18069 fps=417 q=-0.0 size=N/A time=00:12:33.62 bitrate=N/A speed=17.4x    frame=18241 fps=416 q=-0.0 size=N/A time=00:12:40.80 bitrate=N/A speed=17.4x    frame=18371 fps=414 q=-0.0 size=N/A time=00:12:46.22 bitrate=N/A speed=17.3x    frame=18633 fps=415 q=-0.0 size=N/A time=00:12:57.15 bitrate=N/A speed=17.3x    frame=18884 fps=416 q=-0.0 size=N/A time=00:13:07.62 bitrate=N/A speed=17.4x    frame=19131 fps=417 q=-0.0 size=N/A time=00:13:17.92 bitrate=N/A speed=17.4x    frame=19346 fps=417 q=-0.0 size=N/A time=00:13:26.88 bitrate=N/A speed=17.4x    frame=19543 fps=417 q=-0.0 size=N/A time=00:13:35.10 bitrate=N/A speed=17.4x    frame=19744 fps=416 q=-0.0 size=N/A time=00:13:43.48 bitrate=N/A speed=17.4x    frame=19959 fps=416 q=-0.0 size=N/A time=00:13:52.45 bitrate=N/A speed=17.4x    frame=20175 fps=416 q=-0.0 size=N/A time=00:14:01.46 bitrate=N/A speed=17.4x    frame=20432 fps=417 q=-0.0 size=N/A time=00:14:12.18 bitrate=N/A speed=17.4x    frame=20675 fps=418 q=-0.0 size=N/A time=00:14:22.31 bitrate=N/A speed=17.4x    frame=20874 fps=417 q=-0.0 size=N/A time=00:14:30.61 bitrate=N/A speed=17.4x    frame=21125 fps=418 q=-0.0 size=N/A time=00:14:41.08 bitrate=N/A speed=17.4x    frame=21409 fps=419 q=-0.0 size=N/A time=00:14:52.93 bitrate=N/A speed=17.5x    frame=21642 fps=420 q=-0.0 size=N/A time=00:15:02.65 bitrate=N/A speed=17.5x    frame=21840 fps=419 q=-0.0 size=N/A time=00:15:10.91 bitrate=N/A speed=17.5x    frame=22089 fps=420 q=-0.0 size=N/A time=00:15:21.29 bitrate=N/A speed=17.5x    frame=22369 fps=421 q=-0.0 size=N/A time=00:15:32.97 bitrate=N/A speed=17.6x    frame=22638 fps=422 q=-0.0 size=N/A time=00:15:44.19 bitrate=N/A speed=17.6x    frame=22907 fps=423 q=-0.0 size=N/A time=00:15:55.41 bitrate=N/A speed=17.6x    frame=23180 fps=424 q=-0.0 size=N/A time=00:16:06.79 bitrate=N/A speed=17.7x    frame=23458 fps=425 q=-0.0 size=N/A time=00:16:18.39 bitrate=N/A speed=17.7x    frame=23733 fps=426 q=-0.0 size=N/A time=00:16:29.86 bitrate=N/A speed=17.8x    frame=23978 fps=427 q=-0.0 size=N/A time=00:16:40.08 bitrate=N/A speed=17.8x    frame=24188 fps=426 q=-0.0 size=N/A time=00:16:48.84 bitrate=N/A speed=17.8x    frame=24400 fps=426 q=-0.0 size=N/A time=00:16:57.68 bitrate=N/A speed=17.8x    frame=24620 fps=426 q=-0.0 size=N/A time=00:17:06.85 bitrate=N/A speed=17.8x    frame=24826 fps=426 q=-0.0 size=N/A time=00:17:15.45 bitrate=N/A speed=17.8x    frame=25018 fps=426 q=-0.0 size=N/A time=00:17:23.45 bitrate=N/A speed=17.8x    frame=25259 fps=426 q=-0.0 size=N/A time=00:17:33.51 bitrate=N/A speed=17.8x    frame=25513 fps=427 q=-0.0 size=N/A time=00:17:44.10 bitrate=N/A speed=17.8x    frame=25748 fps=427 q=-0.0 size=N/A time=00:17:53.90 bitrate=N/A speed=17.8x    frame=26030 fps=428 q=-0.0 size=N/A time=00:18:05.66 bitrate=N/A speed=17.8x    frame=26316 fps=429 q=-0.0 size=N/A time=00:18:17.59 bitrate=N/A speed=17.9x    frame=26510 fps=428 q=-0.0 size=N/A time=00:18:25.68 bitrate=N/A speed=17.9x    frame=26677 fps=428 q=-0.0 size=N/A time=00:18:32.65 bitrate=N/A speed=17.8x    frame=26915 fps=428 q=-0.0 size=N/A time=00:18:42.57 bitrate=N/A speed=17.8x    frame=27173 fps=428 q=-0.0 size=N/A time=00:18:53.34 bitrate=N/A speed=17.9x    frame=27413 fps=429 q=-0.0 size=N/A time=00:19:03.35 bitrate=N/A speed=17.9x    frame=27605 fps=428 q=-0.0 size=N/A time=00:19:11.35 bitrate=N/A speed=17.9x    frame=27858 fps=429 q=-0.0 size=N/A time=00:19:21.91 bitrate=N/A speed=17.9x    frame=28094 fps=429 q=-0.0 size=N/A time=00:19:31.75 bitrate=N/A speed=17.9x    frame=28341 fps=429 q=-0.0 size=N/A time=00:19:42.05 bitrate=N/A speed=17.9x    frame=28604 fps=430 q=-0.0 size=N/A time=00:19:53.02 bitrate=N/A speed=17.9x    frame=28790 fps=430 q=-0.0 size=N/A time=00:20:00.78 bitrate=N/A speed=17.9x    frame=28987 fps=429 q=-0.0 size=N/A time=00:20:08.99 bitrate=N/A speed=17.9x    frame=29201 fps=429 q=-0.0 size=N/A time=00:20:17.92 bitrate=N/A speed=17.9x    frame=29464 fps=430 q=-0.0 size=N/A time=00:20:28.89 bitrate=N/A speed=17.9x    frame=29741 fps=430 q=-0.0 size=N/A time=00:20:40.44 bitrate=N/A speed=  18x    frame=30017 fps=431 q=-0.0 size=N/A time=00:20:51.95 bitrate=N/A speed=  18x    frame=30284 fps=432 q=-0.0 size=N/A time=00:21:03.09 bitrate=N/A speed=  18x    frame=30540 fps=432 q=-0.0 size=N/A time=00:21:13.77 bitrate=N/A speed=  18x    frame=30819 fps=433 q=-0.0 size=N/A time=00:21:25.40 bitrate=N/A speed=18.1x    frame=31053 fps=433 q=-0.0 size=N/A time=00:21:35.16 bitrate=N/A speed=18.1x    frame=31285 fps=433 q=-0.0 size=N/A time=00:21:44.84 bitrate=N/A speed=18.1x    frame=31539 fps=434 q=-0.0 size=N/A time=00:21:55.43 bitrate=N/A speed=18.1x    frame=31811 fps=434 q=-0.0 size=N/A time=00:22:06.78 bitrate=N/A speed=18.1x    frame=32065 fps=435 q=-0.0 size=N/A time=00:22:17.37 bitrate=N/A speed=18.1x    frame=32311 fps=435 q=-0.0 size=N/A time=00:22:27.63 bitrate=N/A speed=18.1x    frame=32554 fps=435 q=-0.0 size=N/A time=00:22:37.77 bitrate=N/A speed=18.2x    frame=32776 fps=435 q=-0.0 size=N/A time=00:22:47.03 bitrate=N/A speed=18.2x    frame=33023 fps=436 q=-0.0 size=N/A time=00:22:57.33 bitrate=N/A speed=18.2x    frame=33243 fps=436 q=-0.0 size=N/A time=00:23:06.51 bitrate=N/A speed=18.2x    frame=33456 fps=436 q=-0.0 size=N/A time=00:23:15.39 bitrate=N/A speed=18.2x    frame=33659 fps=435 q=-0.0 size=N/A time=00:23:23.86 bitrate=N/A speed=18.2x    frame=33875 fps=435 q=-0.0 size=N/A time=00:23:32.86 bitrate=N/A speed=18.1x    frame=34120 fps=435 q=-0.0 size=N/A time=00:23:43.08 bitrate=N/A speed=18.2x    frame=34338 fps=435 q=-0.0 size=N/A time=00:23:52.18 bitrate=N/A speed=18.2x    frame=34544 fps=435 q=-0.0 size=N/A time=00:24:00.77 bitrate=N/A speed=18.1x    frame=34758 fps=435 q=-0.0 size=N/A time=00:24:09.69 bitrate=N/A speed=18.1x    [Parsed_psnr_10 @ 000001e34be36840] PSNR y:47.092228 u:49.871169 v:50.554266 average:47.903223 min:38.472957 max:inf
[out#0/null @ 000001e349bd4200] video:15038KiB audio:273900KiB subtitle:0KiB other streams:0KiB global headers:0KiB muxing overhead: unknown
frame=34997 fps=435 q=-0.0 Lsize=N/A time=00:24:19.66 bitrate=N/A speed=18.1x    
